# xmcd CD database file
#
# Track frame offsets:
#	150
#	22710
#	47536
#	78704
#	107220
#	128605
#	144810
#	177889
#	199611
#
# Disc length: 2912 seconds
#
# Revision: 0
# Processed by: cddbd v1.5.2PL0 Copyright (c) Steve Scherf et al.
# Submitted via: CDex 1.70beta2
#
DISCID=670b5e09
DTITLE=JASON REOLON  - Outline
DYEAR=1900
DGENRE=Jazz
TTITLE0=Outline
TTITLE1=Mirror Mirror
TTITLE2=Picture Perfect
TTITLE3=Pepper Tree
TTITLE4=Remember a Time
TTITLE5=Nieu Moon
TTITLE6=Glass Roots
TTITLE7=Mother City Blues
TTITLE8=Heinsight
EXTD=
EXTT0=
EXTT1=
EXTT2=
EXTT3=
EXTT4=
EXTT5=
EXTT6=
EXTT7=
EXTT8=
PLAYORDER=
